<?xml version="1.0" encoding="utf-8"?>
<!-- Generator: Adobe Illustrator 23.0.3, SVG Export Plug-In . SVG Version: 6.00 Build 0)  -->
<svg version="1.1" id="Lager_1" xmlns="http://www.w3.org/2000/svg" xmlns:xlink="http://www.w3.org/1999/xlink" x="0px" y="0px"
	 viewBox="0 0 3808.63 449.96" style="enable-background:new 0 0 3808.63 449.96;" xml:space="preserve">
<style type="text/css">
	.st0{fill:none;stroke:#D6001E;stroke-width:30;stroke-miterlimit:10;}
	.st1{fill:none;stroke:#FF0000;stroke-width:30;stroke-miterlimit:10;}
</style>
<path class="st0" d="M255.84,350C291,389.96,344,409.96,396,411.96c39,1,78,0,118-3c57-5,111-12,168-20c5,0,10-1,15-2c8-1,15-1,23-3
	c18-3,36-5,54-7c5,0,10-1,15-1c72-10,142-17,213-19c198-6,393,30,591,45c233,18,462,9,695-7c5-1,10-1,15-2c18-1,35-2,53-3
	c110-9,219-18,329-28c50-4,100-8,150-9c101-2,199,10,301,26c103,17,202,29,304,34c38,1,75,4,113,1c15-1,30-3,45-5c17-4,33-7,49-12
	c13-4,25-8,38-12c15-6,30-14,47-14c11-1,21,9,21,20s-6,20-15,27c-9,6-20,7-30,2c-15-8-12-26-10-40c8-66,29-126,47-190
	c6-24,13-47,15-72c0-3-1-7-3-10c-5-4-11-1-16,1c-31,13-56,33-81,55c-20,18-39,35-51,59c-2,5-5,10-3,16c2,5,6,8,11,10c18,8,38,6,58,4
	c29-5,56-12,85-12c11-1,23,2,29,12c4,7,5,16,4.53,23.81"/>
<path class="st0" d="M253,144.96c-17.82,27.29-31.46,58.07-35.01,90.72c-0.83,7.62-1.1,15.31-0.76,22.97"/>
<path class="st0" d="M335,272.96c0,86.98-75.02,162-162,162S15,360.44,15,273.46s70.52-157.5,157.5-157.5S335,185.97,335,272.96z"/>
<path class="st0" d="M333,269.96c-34,50-112,129-256,129"/>
<path class="st0" d="M319,214.96c-44,82-149,151-287,141"/>
<path class="st0" d="M288,178.96c-42,77-118,134-262,133"/>
<path class="st1" d="M293,374.96"/>
<path class="st1" d="M282.08,370.82"/>
<path class="st1" d="M250.87,347.04"/>
<path class="st1" d="M253,408.96"/>
<path class="st1" d="M207,374.96"/>
<path class="st1" d="M221.45,413.35"/>
<path class="st1" d="M195.22,380.94"/>
<path class="st0" d="M210,375.96c8.12,11.68,30,27,41,32"/>
<path class="st0" d="M217,115.96c-14.94,20.65-27.19,43.31-35.4,67.47c-7.37,21.71-11.42,44.53-11.61,67.47
	c-0.1,12.28,0.89,24.56,2.94,36.66"/>
<path class="st1" d="M200,428.96"/>
<path class="st1" d="M148,385.96"/>
<path class="st1" d="M176,430.96"/>
<path class="st1" d="M141.09,385.96"/>
<path class="st0" d="M158,391.96c12,15,30,30,46,38"/>
<path class="st0" d="M170,115.96c-17.07,17.75-28.92,40.03-36.64,63.27c-8.39,25.26-12.14,52.02-12,78.6
	c0.08,15.17,1.44,30.34,4.14,45.27"/>
<line class="st0" x1="56" y1="167.96" x2="133" y2="167.96"/>
<line class="st0" x1="32" y1="217.02" x2="133" y2="217.02"/>
<path class="st1" d="M395,430.96"/>
<path class="st1" d="M395,430.96"/>
<path class="st1" d="M427,398.96"/>
<path class="st1" d="M272,398.96"/>
<path class="st1" d="M237.16,361.3"/>
<path class="st1" d="M293,379.96"/>
<path class="st1" d="M254,347.96"/>
<path class="st0" d="M22,264.96"/>
<path class="st0" d="M122,264.96"/>
<path class="st1" d="M493,408.96"/>
<path class="st1" d="M2505,476.96"/>
<path class="st1" d="M2678,336.96"/>
<path class="st1" d="M2697,378.96"/>
<path class="st1" d="M2468.22,406.79"/>
<path class="st1" d="M2335,388.96"/>
<path class="st1" d="M1619.62,400.79"/>
<path class="st1" d="M1449.26,407.55"/>
<path class="st1" d="M983.06,363.37"/>
<path class="st1" d="M751.92,364.24"/>
<path class="st1" d="M659.47,378.69"/>
<path class="st1" d="M435.96,411.06"/>
<path class="st1" d="M395.33,411.3"/>
<path class="st0" d="M264.7,354.33c11.21,12.18,21.77,18.44,29.32,24.36"/>
<path class="st0" d="M258,144.96c-24.3,27.47-41,68.49-36.33,108.32"/>
<path class="st1" d="M1955.23,1895.49"/>
<g>
	<g>
	</g>
</g>
<g>
	<g>
		<path d="M534.7,100.2h45.72v326.1H534.7V100.2z M554.65,244.98h111.16c8.66,0,16.36-2.09,23.08-6.28
			c6.72-4.18,11.91-10.12,15.58-17.82c3.66-7.69,5.49-16.55,5.49-26.56c0-10.01-1.83-18.86-5.49-26.56
			c-3.66-7.69-8.82-13.63-15.46-17.82c-6.65-4.18-14.38-6.28-23.2-6.28H554.65V100.2h109.37c18.83,0,35.37,3.89,49.64,11.65
			c14.27,7.77,25.33,18.79,33.17,33.06c7.84,14.27,11.77,30.74,11.77,49.42c0,18.68-3.96,35.15-11.88,49.42
			c-7.92,14.27-19.02,25.29-33.28,33.06c-14.27,7.77-30.74,11.65-49.42,11.65H554.65V244.98z M643.4,278.38l45.5-10.31l83.37,158.23
			h-54.24L643.4,278.38z"/>
		<path d="M881.64,414.76c-17.33-9.93-30.74-23.98-40.23-42.13c-9.49-18.15-14.23-39.18-14.23-63.09v-92.34
			c0-23.9,4.74-44.94,14.23-63.09c9.49-18.15,22.9-32.2,40.23-42.13c17.33-9.93,37.35-14.9,60.06-14.9
			c22.71,0,42.73,4.97,60.06,14.9c17.33,9.94,30.74,23.98,40.23,42.13c9.49,18.15,14.23,39.19,14.23,63.09v92.34
			c0,23.91-4.74,44.94-14.23,63.09c-9.49,18.15-22.9,32.2-40.23,42.13c-17.33,9.94-37.36,14.9-60.06,14.9
			C918.99,429.66,898.97,424.69,881.64,414.76z M872.9,28.03h45.72v45.72H872.9V28.03z M977.23,375.53
			c10.23-6.05,18.15-14.64,23.76-25.77c5.6-11.13,8.4-24.02,8.4-38.66v-95.48c0-14.64-2.8-27.53-8.4-38.66
			c-5.6-11.13-13.52-19.72-23.76-25.77c-10.24-6.05-22.08-9.08-35.52-9.08s-25.29,3.03-35.52,9.08
			c-10.24,6.05-18.15,14.64-23.76,25.77c-5.6,11.13-8.4,24.02-8.4,38.66v95.48c0,14.65,2.8,27.53,8.4,38.66
			c5.6,11.13,13.52,19.72,23.76,25.77c10.23,6.05,22.08,9.08,35.52,9.08S967,381.59,977.23,375.53z M964.79,28.03h45.72v45.72
			h-45.72V28.03z"/>
		<path d="M1130.19,100.43h45.72V426.3h-45.72V100.43z M1161.12,382.82h73.74c24.05,0,42.7-6.24,55.92-18.71
			c13.22-12.47,19.83-30.07,19.83-52.78V215.4c0-22.71-6.61-40.3-19.83-52.78c-13.22-12.47-31.86-18.71-55.92-18.71h-73.74v-43.48
			h72.39c26.14,0,48.48,4.56,67.01,13.67c18.53,9.12,32.64,22.41,42.36,39.89c9.71,17.48,14.57,38.55,14.57,63.2v92.34
			c0,24.65-4.86,45.72-14.57,63.2c-9.71,17.48-23.87,30.78-42.47,39.89c-18.6,9.12-40.98,13.67-67.12,13.67h-72.17V382.82z"/>
		<path d="M1520.17,100.43h39l120.13,325.87h-49.31l-90.32-262.89l-90.32,262.89h-49.31L1520.17,100.43z M1455.39,311.32h171.45
			v43.48h-171.45V311.32z"/>
		<path d="M1762.22,100.43h229.95v43.48h-229.95V100.43z M1854.33,127.1h45.72v299.2h-45.72V127.1z"/>
		<path d="M2028.02,100.2h45.72v326.1h-45.72V100.2z M2047.97,244.98h111.16c8.66,0,16.36-2.09,23.08-6.28
			c6.72-4.18,11.91-10.12,15.58-17.82c3.66-7.69,5.49-16.55,5.49-26.56c0-10.01-1.83-18.86-5.49-26.56
			c-3.66-7.69-8.82-13.63-15.46-17.82c-6.65-4.18-14.38-6.28-23.2-6.28h-111.16V100.2h109.37c18.83,0,35.37,3.89,49.64,11.65
			c14.27,7.77,25.33,18.79,33.17,33.06c7.84,14.27,11.77,30.74,11.77,49.42c0,18.68-3.96,35.15-11.88,49.42
			c-7.92,14.27-19.02,25.29-33.28,33.06c-14.27,7.77-30.74,11.65-49.42,11.65h-109.37V244.98z M2136.72,278.38l45.5-10.31
			l83.37,158.23h-54.24L2136.72,278.38z"/>
		<path d="M2415.98,100.43h39L2575.1,426.3h-49.31l-90.32-262.89l-90.32,262.89h-49.31L2415.98,100.43z M2351.21,311.32h171.45
			v43.48h-171.45V311.32z M2394.8,94.15c-9.49-8.96-14.23-21.74-14.23-38.32c0-17.33,4.74-30.67,14.23-40.01
			c9.49-9.34,23.05-14.01,40.68-14.01c17.48,0,31,4.75,40.57,14.23c9.56,9.49,14.34,22.75,14.34,39.78
			c0,16.58-4.78,29.36-14.34,38.32c-9.56,8.96-23.08,13.45-40.57,13.45C2417.84,107.6,2404.29,103.12,2394.8,94.15z M2452.51,72.19
			c4.04-4.18,6.05-9.94,6.05-17.26c0-7.62-2.02-13.56-6.05-17.82c-4.03-4.26-9.71-6.39-17.03-6.39c-7.32,0-13,2.13-17.03,6.39
			c-4.03,4.26-6.05,10.2-6.05,17.82c0,7.32,2.02,13.08,6.05,17.26c4.04,4.18,9.71,6.28,17.03,6.28
			C2442.79,78.46,2448.48,76.37,2452.51,72.19z"/>
		<path d="M2624.41,100.43h45.72V426.3h-45.72V100.43z M2655.34,382.82h73.74c24.05,0,42.7-6.24,55.92-18.71
			c13.22-12.47,19.83-30.07,19.83-52.78V215.4c0-22.71-6.61-40.3-19.83-52.78c-13.22-12.47-31.86-18.71-55.92-18.71h-73.74v-43.48
			h72.39c26.14,0,48.48,4.56,67.01,13.67c18.53,9.12,32.64,22.41,42.36,39.89c9.71,17.48,14.57,38.55,14.57,63.2v92.34
			c0,24.65-4.86,45.72-14.57,63.2c-9.71,17.48-23.87,30.78-42.47,39.89c-18.6,9.12-40.98,13.67-67.12,13.67h-72.17V382.82z"/>
		<path d="M2925.63,100.43h45.72V426.3h-45.72V100.43z M2947.82,100.43h187.14v43.48h-187.14V100.43z M2947.82,242.74h162.49v43.48
			h-162.49V242.74z M2947.82,382.82h187.14v43.48h-187.14V382.82z"/>
		<path d="M3199.95,100.43h41.46l159.35,251.91l-5.38,5.83V100.43h45.27v325.65h-41.91l-158.9-248.1l5.38-5.83v253.93h-45.27V100.43
			z"/>
	</g>
</g>
<path class="st0" d="M271.46,369.32"/>
<path class="st0" d="M3893.17,764.94"/>
<path class="st0" d="M3946.72,316.6"/>
<path class="st0" d="M3698.39,368.35c1.53-14.95,4.51-29.71,7.94-44.34"/>
<path class="st0" d="M3697.46,396.86c-0.19-4.45-0.22-8.9-0.08-13.34"/>
<path class="st0" d="M3437.25,412.41c60.75,5.55,123.75,3.55,183.63-8.37"/>
<path class="st0" d="M3141.29,380.19c52.71,10.77,187.28,24.67,211.98,27.06"/>
<path class="st0" d="M2665.18,363.97c55.82-5.02,110.82-9.02,166.82-11.02c62-2,124,4,186.22,10.23"/>
<path class="st0" d="M2365.26,388.83c74.74-5.87,150.74-11.87,226.01-18.7"/>
<path class="st0" d="M2077.26,406.62c64.74-3.66,128.74-6.66,193.39-10.91"/>
<path class="st0" d="M1918.06,411.29c31.94-0.33,62.94-1.33,95.38-2.26"/>
<path class="st0" d="M1693,407.76c48,1.2,96,3.2,144.47,3.89"/>
<path class="st0" d="M1364.15,379.05C1442,387.96,1520,395.96,1598.79,402"/>
<path class="st0" d="M931.27,360.59c94.73-8.63,189.73-4.63,283.43,3.24"/>
<path class="st0" d="M600.5,399.77c28.37-3.37,56.7-7.08,85.02-10.82c29.4-3.89,58.79-7.83,88.21-11.57
	c16.84-2.14,33.7-4.22,50.56-6.19"/>
<line class="st0" x1="120.17" y1="267.06" x2="20.94" y2="267.06"/>
</svg>
