<?xml version="1.0" encoding="UTF-8" standalone="no"?>
<!-- Generator: Adobe Illustrator 23.0.3, SVG Export Plug-In . SVG Version: 6.00 Build 0)  -->

<svg
   version="1.1"
   id="Lager_1"
   x="0px"
   y="0px"
   viewBox="0 0 3808.63 449.96"
   style="enable-background:new 0 0 3808.63 449.96;"
   xml:space="preserve"
   sodipodi:docname="RTheader.svg"
   inkscape:version="1.2.2 (b0a8486541, 2022-12-01)"
   xmlns:inkscape="http://www.inkscape.org/namespaces/inkscape"
   xmlns:sodipodi="http://sodipodi.sourceforge.net/DTD/sodipodi-0.dtd"
   xmlns="http://www.w3.org/2000/svg"
   xmlns:svg="http://www.w3.org/2000/svg"><defs
   id="defs163" /><sodipodi:namedview
   id="namedview161"
   pagecolor="#ffffff"
   bordercolor="#666666"
   borderopacity="1.0"
   inkscape:showpageshadow="2"
   inkscape:pageopacity="0.0"
   inkscape:pagecheckerboard="0"
   inkscape:deskcolor="#d1d1d1"
   showgrid="false"
   inkscape:zoom="1.3789736"
   inkscape:cx="2856.4724"
   inkscape:cy="323.06638"
   inkscape:window-width="3840"
   inkscape:window-height="1542"
   inkscape:window-x="0"
   inkscape:window-y="34"
   inkscape:window-maximized="1"
   inkscape:current-layer="Lager_1" />
<style
   type="text/css"
   id="style2">
	.st0{fill:none;stroke:#D6001E;stroke-width:30;stroke-miterlimit:10;}
	.st1{fill:none;stroke:#FF0000;stroke-width:30;stroke-miterlimit:10;}
</style>
<path
   class="st0"
   d="M 255.84,350 C 291,389.96 344,409.96 396,411.96 c 39,1 78,0 118,-3 57,-5 111,-12 168,-20 5,0 10,-1 15,-2 8,-1 15,-1 23,-3 18,-3 36,-5 54,-7 5,0 10,-1 15,-1 72,-10 142,-17 213,-19 198,-6 393,30 591,45 233,18 462,9 695,-7 5,-1 11.2572,-0.16793 16.2572,-1.16793 18,-1 33.7428,-2.83207 51.7428,-3.83207 110,-9 219,-18 329,-28 50,-4 100,-8 150,-9 101,-2 199,10 301,26 103,17 202.0366,26.46566 304.0366,31.46566 38,1 74.9634,6.53434 112.9634,3.53434 15,-1 30,-3 45,-5 17,-4 33,-7 49,-12 13,-4 25,-8 38,-12 15,-6 30,-14 47,-14 11,-1 21,9 21,20 0,11 -6,20 -15,27 -9,6 -20,7 -30,2 -15,-8 -12,-26 -10,-40 8,-66 29,-126 47,-190 6,-24 13,-47 15,-72 0,-3 -1,-7 -3,-10 -5,-4 -11,-1 -16,1 -31,13 -56,33 -81,55 -20,18 -39,35 -51,59 -2,5 -5,10 -3,16 2,5 6,8 11,10 18,8 38,6 58,4 29,-5 56,-12 85,-12 11,-1 23,2 29,12 4,7 5,16 4.53,23.81"
   id="path4"
   sodipodi:nodetypes="ccccccccccccccccccccccsccccccccccccccc" />
<path
   class="st0"
   d="M253,144.96c-17.82,27.29-31.46,58.07-35.01,90.72c-0.83,7.62-1.1,15.31-0.76,22.97"
   id="path6" />
<path
   class="st0"
   d="M335,272.96c0,86.98-75.02,162-162,162S15,360.44,15,273.46s70.52-157.5,157.5-157.5S335,185.97,335,272.96z"
   id="path8" />
<path
   class="st0"
   d="M333,269.96c-34,50-112,129-256,129"
   id="path10" />
<path
   class="st0"
   d="M319,214.96c-44,82-149,151-287,141"
   id="path12" />
<path
   class="st0"
   d="M288,178.96c-42,77-118,134-262,133"
   id="path14" />
<path
   class="st1"
   d="M293,374.96"
   id="path16" />
<path
   class="st1"
   d="M282.08,370.82"
   id="path18" />
<path
   class="st1"
   d="M250.87,347.04"
   id="path20" />
<path
   class="st1"
   d="M253,408.96"
   id="path22" />
<path
   class="st1"
   d="M207,374.96"
   id="path24" />
<path
   class="st1"
   d="M221.45,413.35"
   id="path26" />
<path
   class="st1"
   d="M195.22,380.94"
   id="path28" />
<path
   class="st0"
   d="M210,375.96c8.12,11.68,30,27,41,32"
   id="path30" />
<path
   class="st0"
   d="M217,115.96c-14.94,20.65-27.19,43.31-35.4,67.47c-7.37,21.71-11.42,44.53-11.61,67.47  c-0.1,12.28,0.89,24.56,2.94,36.66"
   id="path32" />
<path
   class="st1"
   d="M200,428.96"
   id="path34" />
<path
   class="st1"
   d="M148,385.96"
   id="path36" />
<path
   class="st1"
   d="M176,430.96"
   id="path38" />
<path
   class="st1"
   d="M141.09,385.96"
   id="path40" />
<path
   class="st0"
   d="M158,391.96c12,15,30,30,46,38"
   id="path42" />
<path
   class="st0"
   d="M170,115.96c-17.07,17.75-28.92,40.03-36.64,63.27c-8.39,25.26-12.14,52.02-12,78.6  c0.08,15.17,1.44,30.34,4.14,45.27"
   id="path44" />
<line
   class="st0"
   x1="56"
   y1="167.96"
   x2="133"
   y2="167.96"
   id="line46" />
<line
   class="st0"
   x1="32"
   y1="217.02"
   x2="133"
   y2="217.02"
   id="line48" />
<path
   class="st1"
   d="M395,430.96"
   id="path50" />
<path
   class="st1"
   d="M395,430.96"
   id="path52" />
<path
   class="st1"
   d="M427,398.96"
   id="path54" />
<path
   class="st1"
   d="M272,398.96"
   id="path56" />
<path
   class="st1"
   d="M237.16,361.3"
   id="path58" />
<path
   class="st1"
   d="M293,379.96"
   id="path60" />
<path
   class="st1"
   d="M254,347.96"
   id="path62" />
<path
   class="st0"
   d="M22,264.96"
   id="path64" />
<path
   class="st0"
   d="M122,264.96"
   id="path66" />
<path
   class="st1"
   d="M493,408.96"
   id="path68" />
<path
   class="st1"
   d="M2505,476.96"
   id="path70" />
<path
   class="st1"
   d="M2678,336.96"
   id="path72" />
<path
   class="st1"
   d="M2697,378.96"
   id="path74" />
<path
   class="st1"
   d="M2468.22,406.79"
   id="path76" />
<path
   class="st1"
   d="M2335,388.96"
   id="path78" />
<path
   class="st1"
   d="M1619.62,400.79"
   id="path80" />
<path
   class="st1"
   d="M1449.26,407.55"
   id="path82" />
<path
   class="st1"
   d="M983.06,363.37"
   id="path84" />
<path
   class="st1"
   d="M751.92,364.24"
   id="path86" />
<path
   class="st1"
   d="M659.47,378.69"
   id="path88" />
<path
   class="st1"
   d="M435.96,411.06"
   id="path90" />
<path
   class="st1"
   d="M395.33,411.3"
   id="path92" />
<path
   class="st0"
   d="M264.7,354.33c11.21,12.18,21.77,18.44,29.32,24.36"
   id="path94" />
<path
   class="st0"
   d="M258,144.96c-24.3,27.47-41,68.49-36.33,108.32"
   id="path96" />
<path
   class="st1"
   d="M1955.23,1895.49"
   id="path98" />
<g
   id="g102">
	<g
   id="g100">
	</g>
</g>
<g
   id="g126">
	<g
   id="g124">
		<path
   d="M534.7,100.2h45.72v326.1H534.7V100.2z M554.65,244.98h111.16c8.66,0,16.36-2.09,23.08-6.28    c6.72-4.18,11.91-10.12,15.58-17.82c3.66-7.69,5.49-16.55,5.49-26.56c0-10.01-1.83-18.86-5.49-26.56    c-3.66-7.69-8.82-13.63-15.46-17.82c-6.65-4.18-14.38-6.28-23.2-6.28H554.65V100.2h109.37c18.83,0,35.37,3.89,49.64,11.65    c14.27,7.77,25.33,18.79,33.17,33.06c7.84,14.27,11.77,30.74,11.77,49.42c0,18.68-3.96,35.15-11.88,49.42    c-7.92,14.27-19.02,25.29-33.28,33.06c-14.27,7.77-30.74,11.65-49.42,11.65H554.65V244.98z M643.4,278.38l45.5-10.31l83.37,158.23    h-54.24L643.4,278.38z"
   id="path104" />
		<path
   d="M881.64,414.76c-17.33-9.93-30.74-23.98-40.23-42.13c-9.49-18.15-14.23-39.18-14.23-63.09v-92.34    c0-23.9,4.74-44.94,14.23-63.09c9.49-18.15,22.9-32.2,40.23-42.13c17.33-9.93,37.35-14.9,60.06-14.9    c22.71,0,42.73,4.97,60.06,14.9c17.33,9.94,30.74,23.98,40.23,42.13c9.49,18.15,14.23,39.19,14.23,63.09v92.34    c0,23.91-4.74,44.94-14.23,63.09c-9.49,18.15-22.9,32.2-40.23,42.13c-17.33,9.94-37.36,14.9-60.06,14.9    C918.99,429.66,898.97,424.69,881.64,414.76z M872.9,28.03h45.72v45.72H872.9V28.03z M977.23,375.53    c10.23-6.05,18.15-14.64,23.76-25.77c5.6-11.13,8.4-24.02,8.4-38.66v-95.48c0-14.64-2.8-27.53-8.4-38.66    c-5.6-11.13-13.52-19.72-23.76-25.77c-10.24-6.05-22.08-9.08-35.52-9.08s-25.29,3.03-35.52,9.08    c-10.24,6.05-18.15,14.64-23.76,25.77c-5.6,11.13-8.4,24.02-8.4,38.66v95.48c0,14.65,2.8,27.53,8.4,38.66    c5.6,11.13,13.52,19.72,23.76,25.77c10.23,6.05,22.08,9.08,35.52,9.08S967,381.59,977.23,375.53z M964.79,28.03h45.72v45.72    h-45.72V28.03z"
   id="path106" />
		<path
   d="M1130.19,100.43h45.72V426.3h-45.72V100.43z M1161.12,382.82h73.74c24.05,0,42.7-6.24,55.92-18.71    c13.22-12.47,19.83-30.07,19.83-52.78V215.4c0-22.71-6.61-40.3-19.83-52.78c-13.22-12.47-31.86-18.71-55.92-18.71h-73.74v-43.48    h72.39c26.14,0,48.48,4.56,67.01,13.67c18.53,9.12,32.64,22.41,42.36,39.89c9.71,17.48,14.57,38.55,14.57,63.2v92.34    c0,24.65-4.86,45.72-14.57,63.2c-9.71,17.48-23.87,30.78-42.47,39.89c-18.6,9.12-40.98,13.67-67.12,13.67h-72.17V382.82z"
   id="path108" />
		<path
   d="M1520.17,100.43h39l120.13,325.87h-49.31l-90.32-262.89l-90.32,262.89h-49.31L1520.17,100.43z M1455.39,311.32h171.45    v43.48h-171.45V311.32z"
   id="path110" />
		<path
   d="M1762.22,100.43h229.95v43.48h-229.95V100.43z M1854.33,127.1h45.72v299.2h-45.72V127.1z"
   id="path112" />
		<path
   d="M2028.02,100.2h45.72v326.1h-45.72V100.2z M2047.97,244.98h111.16c8.66,0,16.36-2.09,23.08-6.28    c6.72-4.18,11.91-10.12,15.58-17.82c3.66-7.69,5.49-16.55,5.49-26.56c0-10.01-1.83-18.86-5.49-26.56    c-3.66-7.69-8.82-13.63-15.46-17.82c-6.65-4.18-14.38-6.28-23.2-6.28h-111.16V100.2h109.37c18.83,0,35.37,3.89,49.64,11.65    c14.27,7.77,25.33,18.79,33.17,33.06c7.84,14.27,11.77,30.74,11.77,49.42c0,18.68-3.96,35.15-11.88,49.42    c-7.92,14.27-19.02,25.29-33.28,33.06c-14.27,7.77-30.74,11.65-49.42,11.65h-109.37V244.98z M2136.72,278.38l45.5-10.31    l83.37,158.23h-54.24L2136.72,278.38z"
   id="path114" />
		<path
   d="M2415.98,100.43h39L2575.1,426.3h-49.31l-90.32-262.89l-90.32,262.89h-49.31L2415.98,100.43z M2351.21,311.32h171.45    v43.48h-171.45V311.32z M2394.8,94.15c-9.49-8.96-14.23-21.74-14.23-38.32c0-17.33,4.74-30.67,14.23-40.01    c9.49-9.34,23.05-14.01,40.68-14.01c17.48,0,31,4.75,40.57,14.23c9.56,9.49,14.34,22.75,14.34,39.78    c0,16.58-4.78,29.36-14.34,38.32c-9.56,8.96-23.08,13.45-40.57,13.45C2417.84,107.6,2404.29,103.12,2394.8,94.15z M2452.51,72.19    c4.04-4.18,6.05-9.94,6.05-17.26c0-7.62-2.02-13.56-6.05-17.82c-4.03-4.26-9.71-6.39-17.03-6.39c-7.32,0-13,2.13-17.03,6.39    c-4.03,4.26-6.05,10.2-6.05,17.82c0,7.32,2.02,13.08,6.05,17.26c4.04,4.18,9.71,6.28,17.03,6.28    C2442.79,78.46,2448.48,76.37,2452.51,72.19z"
   id="path116" />
		<path
   d="M2624.41,100.43h45.72V426.3h-45.72V100.43z M2655.34,382.82h73.74c24.05,0,42.7-6.24,55.92-18.71    c13.22-12.47,19.83-30.07,19.83-52.78V215.4c0-22.71-6.61-40.3-19.83-52.78c-13.22-12.47-31.86-18.71-55.92-18.71h-73.74v-43.48    h72.39c26.14,0,48.48,4.56,67.01,13.67c18.53,9.12,32.64,22.41,42.36,39.89c9.71,17.48,14.57,38.55,14.57,63.2v92.34    c0,24.65-4.86,45.72-14.57,63.2c-9.71,17.48-23.87,30.78-42.47,39.89c-18.6,9.12-40.98,13.67-67.12,13.67h-72.17V382.82z"
   id="path118" />
		<path
   d="M2925.63,100.43h45.72V426.3h-45.72V100.43z M2947.82,100.43h187.14v43.48h-187.14V100.43z M2947.82,242.74h162.49v43.48    h-162.49V242.74z M2947.82,382.82h187.14v43.48h-187.14V382.82z"
   id="path120" />
		<path
   d="M3199.95,100.43h41.46l159.35,251.91l-5.38,5.83V100.43h45.27v325.65h-41.91l-158.9-248.1l5.38-5.83v253.93h-45.27V100.43    z"
   id="path122" />
	</g>
</g>
<path
   class="st0"
   d="M271.46,369.32"
   id="path128" />
<path
   class="st0"
   d="M3893.17,764.94"
   id="path130" />
<path
   class="st0"
   d="M3946.72,316.6"
   id="path132" />



<path
   class="st0"
   d="m 3145.5729,380.47949 c 52.71,10.77 157.0341,21.32332 185.6815,22.92493"
   id="path140"
   sodipodi:nodetypes="cc" />
<path
   class="st0"
   d="M 2705.8386,360.30095 C 2761.6586,355.28095 2776,354.95 2832,352.95 c 62,-2 124.1138,3.56254 186.3338,9.79254"
   id="path142"
   sodipodi:nodetypes="ccc" />
<path
   class="st0"
   d="M2365.26,388.83c74.74-5.87,150.74-11.87,226.01-18.7"
   id="path144" />
<path
   class="st0"
   d="m 2179.4119,402.11059 c 64.74,-3.66 27.6101,-1.85096 92.2601,-6.10096"
   id="path146"
   sodipodi:nodetypes="cc" />


<path
   class="st0"
   d="m 1364.15,379.05 c 77.85,8.91 63.5883,9.26034 142.3783,15.30034"
   id="path152"
   sodipodi:nodetypes="cc" />
<path
   class="st0"
   d="M931.27,360.59c94.73-8.63,189.73-4.63,283.43,3.24"
   id="path154" />
<path
   class="st0"
   d="m 600.5,399.77 c 28.37,-3.37 56.71576,-7.88584 85.03576,-11.62584 29.4,-3.89 58.69018,-7.75845 88.19424,-10.76416 19.43362,-1.9789 33.7,-4.22 50.56,-6.19"
   id="path156"
   sodipodi:nodetypes="cccc" />
<line
   class="st0"
   x1="120.17"
   y1="267.06"
   x2="20.94"
   y2="267.06"
   id="line158" />
</svg>
