<?xml version="1.0" encoding="utf-8"?>
<!-- Generator: Adobe Illustrator 23.0.3, SVG Export Plug-In . SVG Version: 6.00 Build 0)  -->
<svg version="1.0" id="Lager_1" xmlns="http://www.w3.org/2000/svg" xmlns:xlink="http://www.w3.org/1999/xlink" x="0px" y="0px"
	 viewBox="0 0 350 349" style="enable-background:new 0 0 350 349;" xml:space="preserve">
<style type="text/css">
	.st0{fill:none;stroke:#D6001E;stroke-width:30;stroke-miterlimit:10;}
	.st1{fill:#FFFFFF;stroke:#D6001E;stroke-width:30;stroke-miterlimit:10;}
	.st2{fill:none;stroke:#FF0000;stroke-width:30;stroke-miterlimit:10;}
</style>
<path class="st0" d="M407.41,280.13C597,272,787,258,978,254c69-1,138,1,207,6c117,10,231,24,348,36c422,41,833-11,1252-42
	c16-1,31-1,47-2c37-2,74,1,111,4c5,0,9,0,14,1c32,2,64,5,96,10c104,14,203,32,307,39c88,6,173,17,263-3c7-2,12-4,19-5
	c14-3,26-9,40-13c3-1,5-3,8-4c8-3,17-6,25-9c5-2,11-3,17-3c6,1,12,2,16,7c9,11,5,26-4,36c-7,7-16,11-26,10c-6-1-12-2-16-8
	c-3-5-4-10-5-16c-1-22,4-43,8-66c0-1,2-3,2-4c2-8,3-16,5-24c16-63,39-121,47-185c1-5,2-13-5-13c-13-1-24,7-35,13c-19,12-36,24-53,40
	c-1,1-3,1-4,2c-3,2-4,5-6,7c-18,15-33,30-45,50c-4,7-7,15-4,23c12,10,28,13,43,13c28-1,55-9,84-13c18-2,39-6,53,8
	c6,7,7,18,6.53,26.81"/>
<path class="st0" d="M253,44c-23,34-37,73-36,114c1,31,13,60,33,85c9,10,18,18,28,27c2,1,5,3,7,5c3,1,5,4,7.91,4.07"/>
<path class="st1" d="M335,172c0,86.98-75.02,162-162,162S15,259.48,15,172.5S85.52,15,172.5,15S335,85.02,335,172z"/>
<path class="st0" d="M333,169c-34,50-112,129-256,129"/>
<path class="st0" d="M319,114c-44,82-149,151-287,141"/>
<path class="st0" d="M288,78c-42,77-118,134-262,133"/>
<path class="st2" d="M293,274"/>
<path class="st2" d="M282.08,269.86"/>
<path class="st2" d="M250.87,246.08"/>
<path class="st2" d="M253,308"/>
<path class="st2" d="M207,274"/>
<path class="st2" d="M221.45,312.39"/>
<path class="st2" d="M195.22,279.98"/>
<path class="st0" d="M210,275c8.12,11.68,30,27,41,32"/>
<path class="st0" d="M217,15c-14.94,20.65-27.19,43.31-35.4,67.47c-7.37,21.71-11.42,44.53-11.61,67.47
	c-0.1,12.28,0.89,24.56,2.94,36.66"/>
<path class="st2" d="M200,328"/>
<path class="st2" d="M148,285"/>
<path class="st2" d="M176,330"/>
<path class="st2" d="M141.09,285"/>
<path class="st0" d="M158,291c12,15,30,30,46,38"/>
<path class="st0" d="M170,15c-17.07,17.75-28.92,40.03-36.64,63.27c-8.39,25.26-12.14,52.02-12,78.6
	c0.08,15.17,1.44,30.34,4.14,45.27"/>
<line class="st0" x1="56" y1="67" x2="133" y2="67"/>
<line class="st0" x1="32" y1="114" x2="133" y2="114"/>
<path class="st2" d="M395,330"/>
<path class="st2" d="M395,330"/>
<path class="st2" d="M427,298"/>
<path class="st2" d="M272,298"/>
<path class="st2" d="M237.16,260.34"/>
<path class="st2" d="M293,279"/>
<path class="st2" d="M254,247"/>
<path class="st0" d="M22,164c0,1,100,0,100,0"/>
<path class="st2" d="M493,308"/>
<path class="st2" d="M432,256"/>
<path class="st2" d="M2505,376"/>
<path class="st2" d="M2678,236"/>
<path class="st2" d="M2697,278"/>
<path class="st2" d="M2468.22,305.83"/>
<path class="st2" d="M2335,288"/>
<path class="st2" d="M1619.62,299.83"/>
<path class="st2" d="M1449.26,306.59"/>
<path class="st2" d="M983.06,262.42"/>
<path class="st2" d="M751.92,263.29"/>
<path class="st2" d="M659.47,277.73"/>
<path class="st2" d="M435.96,310.11"/>
<path class="st2" d="M395.33,310.34"/>
<path class="st0" d="M264.7,253.37c11.21,12.18,21.77,18.44,29.32,24.36"/>
<path class="st0" d="M258,44c-24.3,27.47-41,68.49-36.33,108.32"/>
<g>
	<g>
		<path d="M534.7-0.76h45.72v326.1H534.7V-0.76z M554.65,144.03h111.16c8.66,0,16.36-2.09,23.08-6.28
			c6.72-4.18,11.91-10.12,15.58-17.82c3.66-7.69,5.49-16.55,5.49-26.56c0-10.01-1.83-18.86-5.49-26.56
			c-3.66-7.69-8.82-13.63-15.46-17.82c-6.65-4.18-14.38-6.28-23.2-6.28H554.65V-0.76h109.37c18.83,0,35.37,3.89,49.64,11.65
			c14.27,7.77,25.33,18.79,33.17,33.06c7.84,14.27,11.77,30.74,11.77,49.42c0,18.68-3.96,35.15-11.88,49.42
			c-7.92,14.27-19.02,25.29-33.28,33.06c-14.27,7.77-30.74,11.65-49.42,11.65H554.65V144.03z M643.4,177.42l45.5-10.31l83.37,158.23
			h-54.24L643.4,177.42z"/>
		<path d="M881.64,313.8c-17.33-9.93-30.74-23.98-40.23-42.13c-9.49-18.15-14.23-39.18-14.23-63.09v-92.34
			c0-23.9,4.74-44.94,14.23-63.09c9.49-18.15,22.9-32.2,40.23-42.13c17.33-9.93,37.35-14.9,60.06-14.9
			c22.71,0,42.73,4.97,60.06,14.9c17.33,9.94,30.74,23.98,40.23,42.13c9.49,18.15,14.23,39.19,14.23,63.09v92.34
			c0,23.91-4.74,44.94-14.23,63.09c-9.49,18.15-22.9,32.2-40.23,42.13c-17.33,9.94-37.36,14.9-60.06,14.9
			C918.99,328.7,898.97,323.74,881.64,313.8z M872.9-72.92h45.72v45.72H872.9V-72.92z M977.23,274.58
			c10.23-6.05,18.15-14.64,23.76-25.77c5.6-11.13,8.4-24.02,8.4-38.66v-95.48c0-14.64-2.8-27.53-8.4-38.66
			c-5.6-11.13-13.52-19.72-23.76-25.77c-10.24-6.05-22.08-9.08-35.52-9.08s-25.29,3.03-35.52,9.08
			c-10.24,6.05-18.15,14.64-23.76,25.77c-5.6,11.13-8.4,24.02-8.4,38.66v95.48c0,14.65,2.8,27.53,8.4,38.66
			c5.6,11.13,13.52,19.72,23.76,25.77c10.23,6.05,22.08,9.08,35.52,9.08S967,280.63,977.23,274.58z M964.79-72.92h45.72v45.72
			h-45.72V-72.92z"/>
		<path d="M1130.19-0.53h45.72v325.87h-45.72V-0.53z M1161.12,281.86h73.74c24.05,0,42.7-6.24,55.92-18.71
			c13.22-12.47,19.83-30.07,19.83-52.78v-95.92c0-22.71-6.61-40.3-19.83-52.78c-13.22-12.47-31.86-18.71-55.92-18.71h-73.74V-0.53
			h72.39c26.14,0,48.48,4.56,67.01,13.67c18.53,9.12,32.64,22.41,42.36,39.89c9.71,17.48,14.57,38.55,14.57,63.2v92.34
			c0,24.65-4.86,45.72-14.57,63.2c-9.71,17.48-23.87,30.78-42.47,39.89c-18.6,9.12-40.98,13.67-67.12,13.67h-72.17V281.86z"/>
		<path d="M1520.17-0.53h39l120.13,325.87h-49.31l-90.32-262.89l-90.32,262.89h-49.31L1520.17-0.53z M1455.39,210.37h171.45v43.48
			h-171.45V210.37z"/>
		<path d="M1762.22-0.53h229.95v43.48h-229.95V-0.53z M1854.33,26.14h45.72v299.2h-45.72V26.14z"/>
		<path d="M2028.02-0.76h45.72v326.1h-45.72V-0.76z M2047.97,144.03h111.16c8.66,0,16.36-2.09,23.08-6.28
			c6.72-4.18,11.91-10.12,15.58-17.82c3.66-7.69,5.49-16.55,5.49-26.56c0-10.01-1.83-18.86-5.49-26.56
			c-3.66-7.69-8.82-13.63-15.46-17.82c-6.65-4.18-14.38-6.28-23.2-6.28h-111.16V-0.76h109.37c18.83,0,35.37,3.89,49.64,11.65
			c14.27,7.77,25.33,18.79,33.17,33.06c7.84,14.27,11.77,30.74,11.77,49.42c0,18.68-3.96,35.15-11.88,49.42
			c-7.92,14.27-19.02,25.29-33.28,33.06c-14.27,7.77-30.74,11.65-49.42,11.65h-109.37V144.03z M2136.72,177.42l45.5-10.31
			l83.37,158.23h-54.24L2136.72,177.42z"/>
		<path d="M2415.98-0.53h39l120.13,325.87h-49.31l-90.32-262.89l-90.32,262.89h-49.31L2415.98-0.53z M2351.21,210.37h171.45v43.48
			h-171.45V210.37z M2394.8-6.81c-9.49-8.96-14.23-21.74-14.23-38.32c0-17.33,4.74-30.67,14.23-40.01
			c9.49-9.34,23.05-14.01,40.68-14.01c17.48,0,31,4.75,40.57,14.23c9.56,9.49,14.34,22.75,14.34,39.78
			c0,16.58-4.78,29.36-14.34,38.32c-9.56,8.96-23.08,13.45-40.57,13.45C2417.84,6.64,2404.29,2.16,2394.8-6.81z M2452.51-28.77
			c4.04-4.18,6.05-9.94,6.05-17.26c0-7.62-2.02-13.56-6.05-17.82c-4.03-4.26-9.71-6.39-17.03-6.39c-7.32,0-13,2.13-17.03,6.39
			c-4.03,4.26-6.05,10.2-6.05,17.82c0,7.32,2.02,13.08,6.05,17.26c4.04,4.18,9.71,6.28,17.03,6.28
			C2442.79-22.5,2448.48-24.59,2452.51-28.77z"/>
		<path d="M2624.41-0.53h45.72v325.87h-45.72V-0.53z M2655.34,281.86h73.74c24.05,0,42.7-6.24,55.92-18.71
			c13.22-12.47,19.83-30.07,19.83-52.78v-95.92c0-22.71-6.61-40.3-19.83-52.78c-13.22-12.47-31.86-18.71-55.92-18.71h-73.74V-0.53
			h72.39c26.14,0,48.48,4.56,67.01,13.67c18.53,9.12,32.64,22.41,42.36,39.89c9.71,17.48,14.57,38.55,14.57,63.2v92.34
			c0,24.65-4.86,45.72-14.57,63.2c-9.71,17.48-23.87,30.78-42.47,39.89c-18.6,9.12-40.98,13.67-67.12,13.67h-72.17V281.86z"/>
		<path d="M2925.63-0.53h45.72v325.87h-45.72V-0.53z M2947.82-0.53h187.14v43.48h-187.14V-0.53z M2947.82,141.79h162.49v43.48
			h-162.49V141.79z M2947.82,281.86h187.14v43.48h-187.14V281.86z"/>
		<path d="M3199.95-0.53h41.46l159.35,251.91l-5.38,5.83V-0.53h45.27v325.65h-41.91l-158.9-248.1l5.38-5.83v253.93h-45.27V-0.53z"/>
	</g>
</g>
<path class="st0" d="M181-53.98"/>
<path class="st0" d="M271.46,268.36"/>
<path class="st0" d="M3698.39,267.4c1.53-14.95,4.51-29.71,7.94-44.34"/>
<path class="st0" d="M3697.46,295.9c-0.19-4.45-0.22-8.9-0.08-13.34"/>
<path class="st0" d="M3437.25,311.45C3498,317,3561,315,3620.88,303.08"/>
<path class="st0" d="M3141.29,279.23c52.71,10.77,187.28,24.67,211.98,27.06"/>
<path class="st0" d="M2665.18,263.02C2721,258,2776,254,2832,252c62-2,124,4,186.22,10.23"/>
<path class="st0" d="M2365.26,287.87C2440,282,2516,276,2591.27,269.17"/>
<path class="st0" d="M2077.26,305.66C2142,302,2206,299,2270.66,294.75"/>
<path class="st0" d="M1918.06,310.33c31.94-0.33,62.94-1.33,95.38-2.26"/>
<path class="st0" d="M1693,306.8c48,1.2,96,3.2,144.47,3.89"/>
<path class="st0" d="M1364.15,278.09C1442,287,1520,295,1598.79,301.04"/>
<path class="st0" d="M931.27,259.63C1026,251,1121,255,1214.7,262.88"/>
<path class="st0" d="M600.5,298.82c28.37-3.37,56.7-7.08,85.02-10.82c29.4-3.89,58.79-7.83,88.21-11.57
	c16.84-2.14,33.7-4.22,50.56-6.19"/>
</svg>
