<?xml version="1.0" encoding="utf-8"?>
<!-- Generator: Adobe Illustrator 23.0.3, SVG Export Plug-In . SVG Version: 6.00 Build 0)  -->
<svg version="1.0" id="Lager_1" xmlns="http://www.w3.org/2000/svg" xmlns:xlink="http://www.w3.org/1999/xlink" x="0px" y="0px"
	 viewBox="0 0 277.35 78.33" style="enable-background:new 0 0 277.35 78.33;" xml:space="preserve">
<style type="text/css">
	.st0{fill:none;stroke:#D6001E;stroke-width:30;stroke-miterlimit:10;}
	.st1{fill:#FFFFFF;stroke:#D6001E;stroke-width:30;stroke-miterlimit:10;}
	.st2{fill:none;stroke:#FF0000;stroke-width:30;stroke-miterlimit:10;}
	.st3{fill:none;}
</style>
<path class="st0" d="M-2654.87-626.75c-96,147,18.46,258.11,132,266c183.85,12.78,465.98-64.81,715.43-54.54
	c245.11,10.09,442.21,59.24,803.78,55.05c413.58-4.79,825.19-63.27,975.59-58.17c242.75,8.23,319.35,54.19,622.61,61.3
	c159.34,3.74,210.7-56.8,239.04-41.84c28.34,14.96-2.72,66.38-36.43,44.93c-39.81-25.34,81.62-311.49,48.68-311.49
	c-34.23,0-175.73,116.27-142.98,138.89c42.13,29.11,136.66-20.68,171.57,1.02c13.15,8.17,11.23,30.64,11.23,30.64"/>
<path class="st1" d="M-2572.87-498.75c0,86.98-75.02,162-162,162s-158-74.52-158-161.5s70.52-157.5,157.5-157.5
	S-2572.87-585.74-2572.87-498.75z"/>
<path class="st0" d="M-2574.87-501.75c-34,50-112,129-256,129"/>
<path class="st0" d="M-2588.87-556.75c-44,82-149,151-287,141"/>
<path class="st0" d="M-2619.87-592.75c-42,77-118,134-262,133"/>
<path class="st2" d="M-2614.87-396.75"/>
<path class="st2" d="M-2625.79-400.89"/>
<path class="st2" d="M-2657-424.67"/>
<path class="st2" d="M-2654.87-362.75"/>
<path class="st2" d="M-2700.87-396.75"/>
<path class="st2" d="M-2686.42-358.36"/>
<path class="st2" d="M-2712.65-390.77"/>
<path class="st0" d="M-2697.87-395.75c8.13,11.68,30,27,41,32"/>
<path class="st0" d="M-2690.87-655.75c-14.94,20.65-27.19,43.31-35.4,67.47c-7.37,21.71-11.42,44.53-11.61,67.47
	c-0.1,12.28,0.89,24.56,2.94,36.66"/>
<path class="st2" d="M-2707.87-342.75"/>
<path class="st2" d="M-2759.87-385.75"/>
<path class="st2" d="M-2731.87-340.75"/>
<path class="st2" d="M-2766.78-385.75"/>
<path class="st0" d="M-2749.87-379.75c12,15,30,30,46,38"/>
<path class="st0" d="M-2737.87-655.75c-17.07,17.75-28.92,40.03-36.64,63.27c-8.39,25.26-12.14,52.02-12,78.6
	c0.08,15.17,1.44,30.34,4.14,45.27"/>
<line class="st0" x1="-2851.87" y1="-603.75" x2="-2774.87" y2="-603.75"/>
<line class="st0" x1="-2875.87" y1="-556.75" x2="-2774.87" y2="-556.75"/>
<path class="st2" d="M-2512.87-340.75"/>
<path class="st2" d="M-2512.87-340.75"/>
<path class="st2" d="M-2480.87-372.75"/>
<path class="st2" d="M-2635.87-372.75"/>
<path class="st2" d="M-2670.71-410.41"/>
<path class="st2" d="M-2614.87-391.75"/>
<path class="st2" d="M-2653.87-423.75"/>
<path class="st0" d="M-2885.87-506.75c0,1,100,0,100,0"/>
<path class="st2" d="M-2414.87-362.75"/>
<path class="st2" d="M-2475.87-414.75"/>
<path class="st2" d="M-402.87-294.75"/>
<path class="st2" d="M-229.87-434.75"/>
<path class="st2" d="M-210.87-392.75"/>
<path class="st2" d="M-439.64-364.92"/>
<path class="st2" d="M-572.87-382.75"/>
<path class="st2" d="M-1288.25-370.92"/>
<path class="st2" d="M-1458.61-364.16"/>
<path class="st2" d="M-1924.8-408.34"/>
<path class="st2" d="M-2155.95-407.47"/>
<path class="st2" d="M-2248.4-393.02"/>
<path class="st2" d="M-2471.91-360.64"/>
<path class="st2" d="M-2512.54-360.41"/>
<path class="st0" d="M-2643.17-417.38c11.21,12.18,21.77,18.44,29.32,24.36"/>
<path class="st0" d="M-2649.87-626.75c-24.3,27.47-41,68.49-36.33,108.32"/>
<g>
	<g>
		<path d="M-2373.17-671.51h45.72v326.1h-45.72V-671.51z M-2353.22-526.72h111.16c8.66,0,16.36-2.09,23.08-6.28
			c6.72-4.18,11.91-10.12,15.58-17.82c3.66-7.69,5.49-16.55,5.49-26.56c0-10.01-1.83-18.86-5.49-26.56
			c-3.66-7.69-8.82-13.63-15.46-17.82c-6.65-4.18-14.38-6.28-23.2-6.28h-111.16v-43.48h109.37c18.83,0,35.37,3.89,49.64,11.65
			c14.27,7.77,25.33,18.79,33.17,33.06c7.84,14.27,11.77,30.74,11.77,49.42c0,18.68-3.96,35.15-11.88,49.42
			c-7.92,14.27-19.02,25.29-33.28,33.06c-14.27,7.77-30.74,11.65-49.42,11.65h-109.37V-526.72z M-2264.47-493.33l45.5-10.31
			l83.37,158.23h-54.24L-2264.47-493.33z"/>
		<path d="M-2026.23-356.95c-17.33-9.93-30.74-23.98-40.23-42.13c-9.49-18.15-14.23-39.18-14.23-63.09v-92.34
			c0-23.9,4.74-44.94,14.23-63.09c9.49-18.15,22.9-32.2,40.23-42.13c17.33-9.93,37.35-14.9,60.06-14.9
			c22.71,0,42.73,4.97,60.06,14.9c17.33,9.94,30.74,23.98,40.23,42.13c9.49,18.15,14.23,39.19,14.23,63.09v92.34
			c0,23.91-4.74,44.94-14.23,63.09c-9.49,18.15-22.9,32.2-40.23,42.13c-17.33,9.94-37.36,14.9-60.06,14.9
			C-1988.88-342.05-2008.89-347.01-2026.23-356.95z M-2034.97-743.67h45.72v45.72h-45.72V-743.67z M-1930.64-396.17
			c10.23-6.05,18.15-14.64,23.76-25.77c5.6-11.13,8.4-24.02,8.4-38.66v-95.48c0-14.64-2.8-27.53-8.4-38.66
			c-5.6-11.13-13.52-19.72-23.76-25.77c-10.24-6.05-22.08-9.08-35.52-9.08s-25.29,3.03-35.52,9.08
			c-10.24,6.05-18.15,14.64-23.76,25.77c-5.6,11.13-8.4,24.02-8.4,38.66v95.48c0,14.65,2.8,27.53,8.4,38.66
			c5.6,11.13,13.52,19.72,23.76,25.77c10.23,6.05,22.08,9.08,35.52,9.08S-1940.87-390.12-1930.64-396.17z M-1943.08-743.67h45.72
			v45.72h-45.72V-743.67z"/>
		<path d="M-1777.67-671.28h45.72v325.87h-45.72V-671.28z M-1746.75-388.89h73.74c24.05,0,42.7-6.24,55.92-18.71
			c13.22-12.47,19.83-30.07,19.83-52.78v-95.92c0-22.71-6.61-40.3-19.83-52.78c-13.22-12.47-31.86-18.71-55.92-18.71h-73.74v-43.48
			h72.39c26.14,0,48.48,4.56,67.01,13.67c18.53,9.12,32.64,22.41,42.36,39.89c9.71,17.48,14.57,38.55,14.57,63.2v92.34
			c0,24.65-4.86,45.72-14.57,63.2c-9.71,17.48-23.87,30.78-42.47,39.89c-18.6,9.12-40.98,13.67-67.12,13.67h-72.17V-388.89z"/>
		<path d="M-1387.7-671.28h39l120.13,325.87h-49.31l-90.32-262.89l-90.32,262.89h-49.31L-1387.7-671.28z M-1452.48-460.38h171.45
			v43.48h-171.45V-460.38z"/>
		<path d="M-1145.65-671.28h229.95v43.48h-229.95V-671.28z M-1053.54-644.61h45.72v299.2h-45.72V-644.61z"/>
		<path d="M-879.85-671.51h45.72v326.1h-45.72V-671.51z M-859.9-526.72h111.16c8.66,0,16.36-2.09,23.08-6.28
			c6.72-4.18,11.91-10.12,15.58-17.82c3.66-7.69,5.49-16.55,5.49-26.56c0-10.01-1.83-18.86-5.49-26.56
			c-3.66-7.69-8.82-13.63-15.46-17.82c-6.65-4.18-14.38-6.28-23.2-6.28H-859.9v-43.48h109.37c18.83,0,35.37,3.89,49.64,11.65
			c14.27,7.77,25.33,18.79,33.17,33.06c7.84,14.27,11.77,30.74,11.77,49.42c0,18.68-3.96,35.15-11.88,49.42
			c-7.92,14.27-19.02,25.29-33.28,33.06c-14.27,7.77-30.74,11.65-49.42,11.65H-859.9V-526.72z M-771.15-493.33l45.5-10.31
			l83.37,158.23h-54.24L-771.15-493.33z"/>
		<path d="M-491.89-671.28h39l120.13,325.87h-49.31l-90.32-262.89l-90.32,262.89h-49.31L-491.89-671.28z M-556.66-460.38h171.45
			v43.48h-171.45V-460.38z M-513.07-677.56c-9.49-8.96-14.23-21.74-14.23-38.32c0-17.33,4.74-30.67,14.23-40.01
			c9.49-9.34,23.05-14.01,40.68-14.01c17.48,0,31,4.75,40.57,14.23c9.56,9.49,14.34,22.75,14.34,39.78
			c0,16.58-4.78,29.36-14.34,38.32c-9.56,8.96-23.08,13.45-40.57,13.45C-490.03-664.11-503.58-668.59-513.07-677.56z
			 M-455.36-699.52c4.04-4.18,6.05-9.94,6.05-17.26c0-7.62-2.02-13.56-6.05-17.82c-4.03-4.26-9.71-6.39-17.03-6.39
			c-7.32,0-13,2.13-17.03,6.39c-4.03,4.26-6.05,10.2-6.05,17.82c0,7.32,2.02,13.08,6.05,17.26c4.04,4.18,9.71,6.28,17.03,6.28
			C-465.07-693.25-459.39-695.34-455.36-699.52z"/>
		<path d="M-283.46-671.28h45.72v325.87h-45.72V-671.28z M-252.53-388.89h73.74c24.05,0,42.7-6.24,55.92-18.71
			c13.22-12.47,19.83-30.07,19.83-52.78v-95.92c0-22.71-6.61-40.3-19.83-52.78c-13.22-12.47-31.86-18.71-55.92-18.71h-73.74v-43.48
			h72.39c26.14,0,48.48,4.56,67.01,13.67c18.53,9.12,32.64,22.41,42.36,39.89c9.71,17.48,14.57,38.55,14.57,63.2v92.34
			c0,24.65-4.86,45.72-14.57,63.2c-9.71,17.48-23.87,30.78-42.47,39.89c-18.6,9.12-40.98,13.67-67.12,13.67h-72.17V-388.89z"/>
		<path d="M17.76-671.28h45.72v325.87H17.76V-671.28z M39.95-671.28h187.14v43.48H39.95V-671.28z M39.95-528.97h162.49v43.48H39.95
			V-528.97z M39.95-388.89h187.14v43.48H39.95V-388.89z"/>
		<path d="M292.08-671.28h41.46L492.9-419.37l-5.38,5.83v-257.74h45.27v325.65h-41.91l-158.9-248.1l5.38-5.83v253.93h-45.27V-671.28
			z"/>
	</g>
</g>
<path class="st0" d="M-2726.87-724.73"/>
<path class="st0" d="M-2636.41-402.39"/>
<path class="st0" d="M790.52-403.35c1.53-14.95,4.51-29.71,7.94-44.34"/>
<path class="st0" d="M789.59-374.85c-0.19-4.45-0.22-8.9-0.08-13.34"/>
<path class="st0" d="M529.38-359.3c60.75,5.55,123.75,3.55,183.63-8.37"/>
<path class="st0" d="M233.42-391.52c52.71,10.77,187.28,24.67,211.98,27.06"/>
<path class="st0" d="M-242.69-407.74c55.82-5.02,110.82-9.02,166.82-11.02c62-2,124,4,186.22,10.23"/>
<path class="st0" d="M-542.61-382.88c74.74-5.87,150.74-11.87,226.01-18.7"/>
<path class="st0" d="M-830.61-365.09c64.74-3.66,128.74-6.66,193.39-10.91"/>
<path class="st0" d="M-989.81-360.42c31.94-0.33,62.94-1.33,95.38-2.26"/>
<path class="st0" d="M-1214.87-363.95c48,1.2,96,3.2,144.47,3.89"/>
<path class="st0" d="M-1543.72-392.66c77.85,8.91,155.85,16.91,234.64,22.95"/>
<path class="st0" d="M-1976.6-411.12c94.73-8.63,189.73-4.63,283.43,3.24"/>
<path class="st0" d="M-2307.36-371.94c28.37-3.37,56.7-7.08,85.02-10.82c29.4-3.89,58.79-7.83,88.21-11.57
	c16.84-2.14,33.7-4.22,50.56-6.19"/>
<path class="st3" d="M17.32-170.18"/>
<path class="st0" d="M262.34,9.23c0,0,0.68,27.23-23.15,32.68C176.25,56.3,87.02-9.33,36.47,25.14
	c-14.64,9.98-19.78,30.6-21.09,48.77c-1.5,20.67,1.94,38.17,1.94,33.19"/>
</svg>
